<svg id="Layer_1" data-name="Layer 1" xmlns="http://www.w3.org/2000/svg" xmlns:xlink="http://www.w3.org/1999/xlink" viewBox="0 0 1200 1200"><defs><clipPath id="clip-path"><path d="M-1331.52,542.07h0c-48.77-46.23-22.09-128.36,44.54-137.08h0a79.82,79.82,0,0,0,68.11-93.74h0c-12.29-66.07,57.57-116.83,116.6-84.72h0a79.81,79.81,0,0,0,110.19-35.81h0c28.89-60.67,115.25-60.67,144.14,0h0a79.81,79.81,0,0,0,110.19,35.81h0c59-32.11,128.89,18.65,116.6,84.72h0A79.82,79.82,0,0,0-553,405h0c66.63,8.72,93.31,90.85,44.54,137.08h0a79.8,79.8,0,0,0,0,115.86h0C-459.71,704.16-486.39,786.29-553,795h0a79.82,79.82,0,0,0-68.11,93.74h0c12.29,66.07-57.57,116.83-116.6,84.72h0a79.81,79.81,0,0,0-110.19,35.81h0c-28.89,60.67-115.25,60.67-144.14,0h0a79.81,79.81,0,0,0-110.19-35.81h0c-59,32.11-128.89-18.65-116.6-84.72h0A79.82,79.82,0,0,0-1287,795h0c-66.63-8.72-93.31-90.85-44.54-137.08h0A79.8,79.8,0,0,0-1331.52,542.07Z" fill="none"/></clipPath><clipPath id="clip-path-3"><path d="M168.48,542.07h0C119.71,495.84,146.39,413.71,213,405h0a79.82,79.82,0,0,0,68.11-93.74h0c-12.29-66.07,57.57-116.83,116.6-84.72h0a79.81,79.81,0,0,0,110.19-35.81h0c28.89-60.67,115.25-60.67,144.14,0h0a79.81,79.81,0,0,0,110.19,35.81h0c59-32.11,128.89,18.65,116.6,84.72h0A79.82,79.82,0,0,0,947,405h0c66.63,8.72,93.31,90.85,44.54,137.08h0a79.8,79.8,0,0,0,0,115.86h0C1040.29,704.16,1013.61,786.29,947,795h0a79.82,79.82,0,0,0-68.11,93.74h0c12.29,66.07-57.57,116.83-116.6,84.72h0a79.81,79.81,0,0,0-110.19,35.81h0c-28.89,60.67-115.25,60.67-144.14,0h0a79.81,79.81,0,0,0-110.19-35.81h0c-59,32.11-128.89-18.65-116.6-84.72h0A79.82,79.82,0,0,0,213,795h0c-66.63-8.72-93.31-90.85-44.54-137.08h0A79.8,79.8,0,0,0,168.48,542.07Z" fill="none"/></clipPath></defs><g id="outlined"><g clip-path="url(#clip-path)"><circle cx="243.63" cy="1958.66" r="1872.52" fill="#e83c53"/></g><g clip-path="url(#clip-path)"><circle cx="-200.13" cy="1963.85" r="1390.56" fill="#ed6a2c"/></g></g><g id="outlined-2" data-name="outlined"><path d="M386.06,210.38h0a84.94,84.94,0,0,0,113.44-31c-44.33-15.37-92.86-4.53-126.79,25.09A89.2,89.2,0,0,1,386.06,210.38Z" fill="#d0dfef"/><path d="M159,568.53c-.77-1.49-1.58-3-2.45-4.4Q157.73,566.34,159,568.53Z" fill="#d0dfef"/><path d="M1017.88,546.14a84.83,84.83,0,0,0-24.76,78.79,127.15,127.15,0,0,0,25-79l-.26.24Z" fill="#d0dfef"/><path d="M773.94,210.38h0a88.79,88.79,0,0,1,13.71-6,127.2,127.2,0,0,0-106.13-1.3A84.91,84.91,0,0,0,773.94,210.38Z" fill="#d0dfef"/><path d="M196.18,399.13a84.32,84.32,0,0,0,36.76-17.88A128.7,128.7,0,0,0,196.18,399.13Z" fill="#d0dfef"/><path d="M896.89,906.65A128.76,128.76,0,0,0,937,827.16,85,85,0,0,0,896.89,906.65Z" fill="#d0dfef"/><path d="M456.21,1000.19A126.23,126.23,0,0,0,495.48,1030,84.65,84.65,0,0,0,456.21,1000.19Z" fill="#d0dfef"/><path d="M189.68,815.31a129.78,129.78,0,0,0,73.68,80.9A85,85,0,0,0,189.68,815.31Z" fill="#d0dfef"/><path d="M168.48,542.07h0C119.71,495.84,146.39,413.71,213,405h0a79.82,79.82,0,0,0,68.11-93.74h0c-12.29-66.07,57.57-116.83,116.6-84.72h0a79.81,79.81,0,0,0,110.19-35.81h0c28.89-60.67,115.25-60.67,144.14,0h0a79.81,79.81,0,0,0,110.19,35.81h0c59-32.11,128.89,18.65,116.6,84.72h0A79.82,79.82,0,0,0,947,405h0c66.63,8.72,93.31,90.85,44.54,137.08h0a79.8,79.8,0,0,0,0,115.86h0C1040.29,704.16,1013.61,786.29,947,795h0a79.82,79.82,0,0,0-68.11,93.74h0c12.29,66.07-57.57,116.83-116.6,84.72h0a79.81,79.81,0,0,0-110.19,35.81h0c-28.89,60.67-115.25,60.67-144.14,0h0a79.81,79.81,0,0,0-110.19-35.81h0c-59,32.11-128.89-18.65-116.6-84.72h0A79.82,79.82,0,0,0,213,795h0c-66.63-8.72-93.31-90.85-44.54-137.08h0A79.8,79.8,0,0,0,168.48,542.07Z" fill="#3c62f2"/><g clip-path="url(#clip-path-3)"><circle cx="1743.63" cy="1958.66" r="1872.52" fill="#e83c53"/></g><g clip-path="url(#clip-path-3)"><circle cx="1299.87" cy="1963.85" r="1390.56" fill="#ed6a2c"/></g><path d="M274.33,571.94a49.86,49.86,0,0,1-17.72-10.29q-4.56-4-4.56-8.95a9.53,9.53,0,0,1,2.87-6.83,9.29,9.29,0,0,1,6.92-3,8.94,8.94,0,0,1,5.74,2,49.72,49.72,0,0,0,13.16,8.1,41.23,41.23,0,0,0,15.19,2.53,30.29,30.29,0,0,0,16.28-4.22q6.84-4.22,6.84-10.46,0-7.59-6.75-11.9t-21.44-6.49q-36.94-5.4-37-34.43a31,31,0,0,1,5.57-18.48,35.17,35.17,0,0,1,15.18-12,53.89,53.89,0,0,1,21.44-4.13,61.5,61.5,0,0,1,20,3.2,48.6,48.6,0,0,1,15.61,8.44q4.89,3.88,4.9,8.95a9.53,9.53,0,0,1-2.87,6.83,9.13,9.13,0,0,1-6.75,3,7.36,7.36,0,0,1-4.56-1.52,44.74,44.74,0,0,0-12.23-6.49,40.55,40.55,0,0,0-14.09-3q-10.64,0-16.46,4t-5.82,10.38a12.11,12.11,0,0,0,6,11q6,3.71,18.82,6.07,14.5,2.53,23.2,6.5a29.62,29.62,0,0,1,13.08,10.8q4.38,6.82,4.39,18.14a30.34,30.34,0,0,1-6,18.65,38.49,38.49,0,0,1-15.95,12.31A53.42,53.42,0,0,1,295.93,575,70.38,70.38,0,0,1,274.33,571.94Z" fill="#fff"/><path d="M452.27,457.7a9.06,9.06,0,0,1,3.12,6.92,11.42,11.42,0,0,1-1,4.55L412.7,566.71a11.23,11.23,0,0,1-4.22,4.89,9.67,9.67,0,0,1-11.05-.08,10.48,10.48,0,0,1-3.8-4.64L352,469a9.41,9.41,0,0,1-.84-4.22,9.06,9.06,0,0,1,3.37-7.34,10.84,10.84,0,0,1,6.92-2.78,9.54,9.54,0,0,1,5.4,1.69,10.59,10.59,0,0,1,3.88,4.89l33.92,79.82,31-79.82a10.75,10.75,0,0,1,3.88-4.72,9.54,9.54,0,0,1,5.4-1.69A10.51,10.51,0,0,1,452.27,457.7Z" fill="#fff"/><path d="M567.44,512.46a10.12,10.12,0,0,1,2.87,7.34v35.77a10.1,10.1,0,0,1-5.23,9.11A67.28,67.28,0,0,1,528.8,575a61.9,61.9,0,0,1-53.33-30.29,60.29,60.29,0,0,1,0-60.92,61.35,61.35,0,0,1,22.45-22.11,60.73,60.73,0,0,1,30.88-8.18q16.71,0,29,6.75a9.26,9.26,0,0,1,3.8,3.54,9.37,9.37,0,0,1,1.27,4.73,10.66,10.66,0,0,1-2.79,7.34,8.79,8.79,0,0,1-6.83,3.12,13.82,13.82,0,0,1-5.57-1.35,47.75,47.75,0,0,0-18.9-3.88,37.94,37.94,0,0,0-19.91,5.48,40.86,40.86,0,0,0,0,70,37.85,37.85,0,0,0,19.91,5.49,64.84,64.84,0,0,0,10.12-.85,58.57,58.57,0,0,0,9.45-2.19V529.75H532.51a10.08,10.08,0,0,1-7.34-2.87,10.4,10.4,0,0,1,0-14.51,10.12,10.12,0,0,1,7.34-2.87h27.68A9.68,9.68,0,0,1,567.44,512.46Z" fill="#fff"/><path d="M686.66,560.3a8.92,8.92,0,0,1,1.27,4.55,8.72,8.72,0,0,1-2,5.57q-2.52,3-7.76,3a15.11,15.11,0,0,1-7.42-1.86q-12.15-6.92-12.15-28.18a12.28,12.28,0,0,0-4-9.62q-4-3.54-11.39-3.54H611.65V563a11,11,0,0,1-2.44,7.42,8.1,8.1,0,0,1-6.5,2.87,13.08,13.08,0,0,1-8.52-2.95,9.11,9.11,0,0,1-3.63-7.34V465.46a10.08,10.08,0,0,1,10.29-10.29h48.6A31.27,31.27,0,0,1,666,459.89a34.91,34.91,0,0,1,12.41,13A37.36,37.36,0,0,1,683,491.45a32.88,32.88,0,0,1-4.56,16.45,36.42,36.42,0,0,1-11.81,12.74q10.62,7.43,11.64,19.91a28.22,28.22,0,0,1,.51,5.23,53.73,53.73,0,0,0,1.35,7.51,5.55,5.55,0,0,0,3,3.46A9.89,9.89,0,0,1,686.66,560.3ZM654.52,510a21.79,21.79,0,0,0,4.72-7.68A28.52,28.52,0,0,0,661.1,492a20.23,20.23,0,0,0-1.86-8.69,17.94,17.94,0,0,0-4.72-6.33,9.26,9.26,0,0,0-5.91-2.36h-37v38.31h37A8.42,8.42,0,0,0,654.52,510Z" fill="#fff"/><path d="M277.09,729.89a10.61,10.61,0,0,1-7.42,3,10.17,10.17,0,0,1-7.51-3,9.93,9.93,0,0,1-3-7.34V625a9.84,9.84,0,0,1,3-7.34,10.72,10.72,0,0,1,7.77-2.95,10.06,10.06,0,0,1,7.25,2.95,9.82,9.82,0,0,1,3,7.34v97.54A9.55,9.55,0,0,1,277.09,729.89Z" fill="#fff"/><path d="M393.53,629.06A11.39,11.39,0,0,1,391,636a8.33,8.33,0,0,1-6.92,3.55,12.21,12.21,0,0,1-5.74-1.52,44.19,44.19,0,0,0-38.47,1.09,33.77,33.77,0,0,0-13.5,14,43.93,43.93,0,0,0-4.73,20.67q0,19.92,10.72,30.21t28.1,10.29a38.76,38.76,0,0,0,17.88-3.88,13.6,13.6,0,0,1,5.4-1.35,9.29,9.29,0,0,1,7.43,3.71,11,11,0,0,1,2.53,6.92,9.17,9.17,0,0,1-1.35,4.9,8.72,8.72,0,0,1-3.88,3.37,61.8,61.8,0,0,1-28,6.58,66.27,66.27,0,0,1-30.38-7A53.88,53.88,0,0,1,308,706.86q-8.27-13.67-8.26-33.08a60.91,60.91,0,0,1,7.84-30.88,55.78,55.78,0,0,1,21.69-21.35,63.32,63.32,0,0,1,31.22-7.67,60.05,60.05,0,0,1,27.84,6.58A9,9,0,0,1,393.53,629.06Z" fill="#fff"/><path d="M512.67,704.41a56.88,56.88,0,0,1-20.51,22,57.57,57.57,0,0,1-58.89,0,56.29,56.29,0,0,1-20.42-22,67.56,67.56,0,0,1,0-61.25,56.25,56.25,0,0,1,20.42-22,57.57,57.57,0,0,1,58.89,0,56.83,56.83,0,0,1,20.51,22,66.91,66.91,0,0,1,0,61.25ZM493.6,653.28a36.89,36.89,0,0,0-12.66-14.6,33.8,33.8,0,0,0-36.53-.08,35.57,35.57,0,0,0-12.49,14.6,49.63,49.63,0,0,0,0,41.17A35.64,35.64,0,0,0,444.41,709a33.83,33.83,0,0,0,36.53-.09,36.79,36.79,0,0,0,12.66-14.59,48.48,48.48,0,0,0,0-41Z" fill="#fff"/><path d="M635.68,617.42a9.48,9.48,0,0,1,2.54,6.75v98.38a10.11,10.11,0,0,1-10.3,10.3,14.74,14.74,0,0,1-4.64-.76A6.6,6.6,0,0,1,620,730l-61.93-78.64V723.4a9.29,9.29,0,0,1-2.62,6.75,9.08,9.08,0,0,1-6.83,2.7,8.61,8.61,0,0,1-6.58-2.7,9.47,9.47,0,0,1-2.53-6.75V625a10.08,10.08,0,0,1,10.29-10.29,13,13,0,0,1,5,1,8.11,8.11,0,0,1,3.63,2.7l61.42,78.3V624.17a9.29,9.29,0,0,1,2.62-6.75,8.86,8.86,0,0,1,6.66-2.7A8.59,8.59,0,0,1,635.68,617.42Z" fill="#fff"/><path d="M755.66,718.59a11.06,11.06,0,0,1,.68,3.62,9.72,9.72,0,0,1-3.46,7.6,11.82,11.82,0,0,1-8,3,9.28,9.28,0,0,1-4.22-1,9.14,9.14,0,0,1-3.37-2.87L700.65,680.7l-16,15.36v26.49a9.93,9.93,0,0,1-3,7.43,10.57,10.57,0,0,1-7.68,2.87,10.17,10.17,0,0,1-7.51-3,9.93,9.93,0,0,1-3-7.34V625a9.84,9.84,0,0,1,3-7.34,10.72,10.72,0,0,1,7.77-2.95A9.84,9.84,0,0,1,684.62,625v45.9l54-53.15q3.89-3.88,8.27-3.88a8.33,8.33,0,0,1,6.58,3.2,10.36,10.36,0,0,1,2.7,6.75,9.15,9.15,0,0,1-3,6.58l-36.79,35.1L754,715.3A12.08,12.08,0,0,1,755.66,718.59Z" fill="#fff"/><path d="M791.94,729.89a10.61,10.61,0,0,1-7.42,3,10.17,10.17,0,0,1-7.51-3,9.93,9.93,0,0,1-3-7.34V625a9.84,9.84,0,0,1,3-7.34,10.73,10.73,0,0,1,7.77-2.95,10.06,10.06,0,0,1,7.25,2.95,9.82,9.82,0,0,1,3,7.34v97.54A9.55,9.55,0,0,1,791.94,729.89Z" fill="#fff"/><path d="M905.51,617.42a9.29,9.29,0,0,1,2.87,7.09,9,9,0,0,1-2.87,7,10.56,10.56,0,0,1-7.42,2.62h-26.5v88.42a9.57,9.57,0,0,1-3.2,7.34,11.29,11.29,0,0,1-7.93,3,10.68,10.68,0,0,1-7.77-3,9.81,9.81,0,0,1-3-7.34V634.13h-26.5a10.37,10.37,0,0,1-7.42-2.7,9.25,9.25,0,0,1-2.87-7.09,9,9,0,0,1,3-6.92,10.48,10.48,0,0,1,7.34-2.7h74.93A10.39,10.39,0,0,1,905.51,617.42Z" fill="#fff"/></g></svg>